<svg width="282" height="65" viewBox="0 0 282 65" fill="none" xmlns="http://www.w3.org/2000/svg">
<path d="M24.4966 63.655C22.4432 63.655 21.2699 63.185 20.9766 62.245L0.826574 4.335C0.653241 3.86833 0.566574 3.48833 0.566574 3.195C0.566574 2.195 1.82657 1.695 4.34657 1.695H5.13657C7.18991 1.695 8.36324 2.165 8.65657 3.105L24.9366 50.095L25.8166 54.675H26.0866L27.0566 50.015L43.3366 3.105C43.6299 2.165 44.8032 1.695 46.8566 1.695H47.3766C49.9032 1.695 51.1666 2.195 51.1666 3.195C51.1666 3.48833 51.0766 3.89833 50.8966 4.425L30.7466 62.245C30.4532 63.185 29.2799 63.655 27.2266 63.655H24.4966ZM64.5366 9.265C61.9566 9.265 60.6666 8.56167 60.6666 7.155V2.225C60.6666 0.818332 62.0766 0.114998 64.8966 0.114998C67.4766 0.114998 68.7666 0.818332 68.7666 2.225V7.155C68.7666 8.56167 67.3566 9.265 64.5366 9.265ZM64.5366 63.655C62.1899 63.655 61.0166 63.0083 61.0166 61.715V19.215C61.0166 17.9217 62.1899 17.275 64.5366 17.275H64.8966C67.2432 17.275 68.4166 17.9217 68.4166 19.215V61.715C68.4166 63.0083 67.2432 63.655 64.8966 63.655H64.5366ZM93.4066 64.265C90.8799 64.265 88.5466 63.9583 86.4066 63.345C84.2666 62.725 82.5666 61.975 81.3066 61.095C80.0466 60.215 79.4166 59.425 79.4166 58.725C79.4166 58.1383 79.7832 57.2583 80.5166 56.085C81.2499 54.9117 81.9099 54.325 82.4966 54.325C82.6099 54.325 83.1666 54.6483 84.1666 55.295C85.1599 55.935 86.4066 56.5217 87.9066 57.055C89.3999 57.5817 91.0566 57.845 92.8766 57.845C98.6232 57.845 101.497 55.4683 101.497 50.715C101.497 48.7217 100.853 47.1383 99.5666 45.965C98.2732 44.7917 95.9832 43.735 92.6966 42.795C88.0632 41.4483 84.8666 39.7617 83.1066 37.735C81.3466 35.7083 80.4666 32.995 80.4666 29.595C80.4666 27.1283 81.0966 24.9283 82.3566 22.995C83.6232 21.0617 85.3566 19.5517 87.5566 18.465C89.7566 17.3783 92.2632 16.835 95.0766 16.835C98.0699 16.835 100.753 17.215 103.127 17.975C105.507 18.7417 106.697 19.6217 106.697 20.615C106.697 21.3817 106.357 22.365 105.677 23.565C105.003 24.7717 104.403 25.375 103.877 25.375C103.703 25.315 102.927 24.9183 101.547 24.185C100.167 23.4517 98.2732 23.085 95.8666 23.085C93.6399 23.085 91.7766 23.5817 90.2766 24.575C88.7832 25.575 88.0366 26.925 88.0366 28.625C88.0366 30.6183 88.5632 32.2017 89.6166 33.375C90.6766 34.5483 92.4366 35.5183 94.8966 36.285C98.6566 37.4583 101.517 38.615 103.477 39.755C105.443 40.9017 106.853 42.3117 107.707 43.985C108.553 45.6583 108.977 47.8417 108.977 50.535C108.977 53.1217 108.29 55.455 106.917 57.535C105.537 59.615 103.657 61.2583 101.277 62.465C98.9032 63.665 96.2799 64.265 93.4066 64.265ZM124.207 9.265C121.627 9.265 120.337 8.56167 120.337 7.155V2.225C120.337 0.818332 121.743 0.114998 124.557 0.114998C127.137 0.114998 128.427 0.818332 128.427 2.225V7.155C128.427 8.56167 127.02 9.265 124.207 9.265ZM124.207 63.655C121.86 63.655 120.687 63.0083 120.687 61.715V19.215C120.687 17.9217 121.86 17.275 124.207 17.275H124.557C126.903 17.275 128.077 17.9217 128.077 19.215V61.715C128.077 63.0083 126.903 63.655 124.557 63.655H124.207ZM156.767 64.005C153.833 64.005 151.207 63.1083 148.887 61.315C146.573 59.5283 145.417 56.375 145.417 51.855V23.785H141.017C140.43 23.785 139.99 23.5817 139.697 23.175C139.403 22.7617 139.257 22.085 139.257 21.145V20.095C139.257 19.155 139.403 18.4783 139.697 18.065C139.99 17.6583 140.43 17.455 141.017 17.455H145.417L146.467 8.215C146.647 6.92167 147.587 6.275 149.287 6.275H150.167C151.927 6.275 152.807 6.92167 152.807 8.215V17.455H160.197C160.843 17.455 161.297 17.6583 161.557 18.065C161.823 18.4783 161.957 19.155 161.957 20.095V21.145C161.957 22.085 161.823 22.7617 161.557 23.175C161.297 23.5817 160.843 23.785 160.197 23.785H152.807V51.155C152.807 53.6217 153.23 55.3217 154.077 56.255C154.93 57.195 156.09 57.665 157.557 57.665C158.67 57.665 159.507 57.5917 160.067 57.445C160.62 57.2983 161.043 57.225 161.337 57.225C161.87 57.225 162.31 57.7683 162.657 58.855C163.01 59.9417 163.187 60.7783 163.187 61.365C163.187 63.125 161.047 64.005 156.767 64.005ZM197.417 64.005C189.677 64.005 183.737 62.2283 179.597 58.675C175.463 55.1283 173.397 50.1583 173.397 43.765V3.635C173.397 2.34167 174.57 1.695 176.917 1.695H177.617C179.963 1.695 181.137 2.34167 181.137 3.635V44.025C181.137 46.605 181.843 48.9083 183.257 50.935C184.663 52.9617 186.597 54.5317 189.057 55.645C191.523 56.7583 194.31 57.315 197.417 57.315C200.53 57.315 203.317 56.7417 205.777 55.595C208.243 54.455 210.18 52.8717 211.587 50.845C212.993 48.825 213.697 46.5517 213.697 44.025V3.635C213.697 2.34167 214.87 1.695 217.217 1.695H217.927C220.273 1.695 221.447 2.34167 221.447 3.635V43.765C221.447 50.1583 219.363 55.1283 215.197 58.675C211.03 62.2283 205.103 64.005 197.417 64.005ZM233.587 63.655C231.067 63.655 229.807 63.155 229.807 62.155C229.807 61.8617 229.893 61.4517 230.067 60.925L250.927 3.105C251.28 2.165 252.453 1.695 254.447 1.695H256.997C259.11 1.695 260.283 2.165 260.517 3.105L281.377 61.015C281.55 61.4217 281.637 61.8017 281.637 62.155C281.637 63.155 280.377 63.655 277.857 63.655H277.147C275.093 63.655 273.92 63.185 273.627 62.245L268.437 47.815H242.567L237.547 62.245C237.253 63.185 236.08 63.655 234.027 63.655H233.587ZM245.027 41.125H266.057L256.817 14.895C256.523 13.9617 256.173 12.2617 255.767 9.795H255.587C255.12 12.1417 254.68 13.8417 254.267 14.895L245.027 41.125Z" fill="white"/>
</svg>
